<svg class="animated active" xmlns="http://www.w3.org/2000/svg" width="750" height="400" viewBox="0 0 198.44 105.83" id="animated_lg44436.369862782434"><path d="M153.82 53.017a51.337 51.337 0 01-51.337 51.337 51.337 51.337 0 01-51.337-51.337A51.337 51.337 0 01102.483 1.68a51.337 51.337 0 0151.337 51.337z" fill="none" stroke="#ebebeb" stroke-linecap="round" stroke-linejoin="bevel" stroke-width="1.613" style="stroke-dasharray: 323px, 325px; stroke-dashoffset: 0px;"></path><path d="M152.31 53.017a49.823 49.823 0 01-49.823 49.823 49.823 49.823 0 01-49.823-49.823 49.823 49.823 0 0149.823-49.823 49.823 49.823 0 0149.823 49.823z" fill="none" stroke="#bdbdbd" stroke-linecap="round" stroke-linejoin="bevel" stroke-width="1.613" style="stroke-dasharray: 314px, 316px; stroke-dashoffset: 0px;"></path><path d="M150.86 53.017a48.377 48.377 0 01-48.377 48.377 48.377 48.377 0 01-48.377-48.377A48.377 48.377 0 01102.483 4.64a48.377 48.377 0 0148.377 48.377z" fill="none" stroke="#979797" stroke-linecap="round" stroke-linejoin="bevel" stroke-width="1.613" style="stroke-dasharray: 305px, 307px; stroke-dashoffset: 0px;"></path><path d="M91.867 44.295s-5.509-6.907-9.003-9.533c-4.395-3.301-7.816-3.29-14.666-7.536-2.328-1.443 5.377-9.574 5.377-9.574s2.24 4.685 8.84 8.677c6.6 3.993 10.389 16.988 10.389 16.988z" stroke="#fff" stroke-width=".488" style="stroke-dasharray: 76px, 78px; stroke-dashoffset: 0px;"></path><path d="M94.486 41.842s-3.533-8.098-6.23-11.538c-3.39-4.326-6.697-5.2-12.215-11.076-1.875-1.996 7.672-7.856 7.672-7.856s.952 5.106 6.293 10.67c5.342 5.565 5.638 19.098 5.638 19.098z" stroke="#fff" stroke-width=".488" style="stroke-dasharray: 76px, 78px; stroke-dashoffset: 0px;"></path><path d="M97.652 40.15s-1.317-8.736-3.03-12.757c-2.156-5.056-5.124-6.757-8.933-13.86-1.294-2.413 9.444-5.602 9.444-5.602s-.403 5.177 3.317 11.935c3.719 6.757.502 19.906.502 19.906z" stroke="#fff" stroke-width=".488" style="stroke-dasharray: 76px, 78px; stroke-dashoffset: 0px;"></path><path d="M101.15 39.335s.989-8.78.374-13.107c-.772-5.442-3.2-7.853-5.04-15.7-.626-2.666 10.571-2.967 10.571-2.967s-1.728 4.897.116 12.387c1.843 7.49-4.667 19.358-4.667 19.358z" stroke="#fff" stroke-width=".488" style="stroke-dasharray: 76px, 78px; stroke-dashoffset: 0px;"></path><path d="M104.73 39.453s3.228-8.225 3.754-12.563c.662-5.456-1.059-8.414-.806-16.469.086-2.737 10.98-.13 10.98-.13s-2.937 4.283-3.095 11.995c-.157 7.712-9.518 17.491-9.518 17.491z" stroke="#fff" stroke-width=".488" style="stroke-dasharray: 76px, 78px; stroke-dashoffset: 0px;"></path><path d="M108.17 40.495s5.246-7.109 6.878-11.164c2.051-5.1 1.154-8.4 3.484-16.117.791-2.622 10.639 2.716 10.639 2.716s-3.946 3.377-6.094 10.785-13.72 14.431-13.72 14.431z" stroke="#fff" stroke-width=".488" style="stroke-dasharray: 76px, 78px; stroke-dashoffset: 0px;"></path><path d="M111.22 42.39s6.907-5.509 9.533-9.003c3.301-4.395 3.29-7.816 7.536-14.666 1.443-2.328 9.574 5.377 9.574 5.377s-4.685 2.24-8.677 8.84c-3.993 6.6-16.988 10.389-16.988 10.389z" stroke="#fff" stroke-width=".488" style="stroke-dasharray: 76px, 78px; stroke-dashoffset: 0px;"></path><path d="M113.67 45.01s8.098-3.533 11.538-6.23c4.326-3.39 5.2-6.697 11.076-12.215 1.996-1.875 7.856 7.672 7.856 7.672s-5.106.952-10.67 6.293c-5.565 5.342-19.098 5.638-19.098 5.638z" stroke="#fff" stroke-width=".488" style="stroke-dasharray: 76px, 78px; stroke-dashoffset: 0px;"></path><path d="M115.36 48.175s8.736-1.317 12.757-3.03c5.056-2.156 6.757-5.124 13.86-8.933 2.413-1.295 5.602 9.443 5.602 9.443s-5.177-.402-11.935 3.318c-6.757 3.719-19.906.502-19.906.502z" stroke="#fff" stroke-width=".488" style="stroke-dasharray: 76px, 78px; stroke-dashoffset: 0px;"></path><path d="M116.18 51.671s8.78.989 13.107.374c5.442-.772 7.853-3.2 15.7-5.04 2.666-.626 2.967 10.571 2.967 10.571s-4.897-1.728-12.387.116c-7.49 1.843-19.358-4.667-19.358-4.667z" stroke="#fff" stroke-width=".488" style="stroke-dasharray: 76px, 78px; stroke-dashoffset: 0px;"></path><path d="M116.06 55.258s8.225 3.228 12.563 3.754c5.456.662 8.414-1.059 16.469-.806 2.737.086.13 10.98.13 10.98s-4.283-2.937-11.995-3.095c-7.712-.157-17.491-9.517-17.491-9.517z" stroke="#fff" stroke-width=".488" style="stroke-dasharray: 76px, 78px; stroke-dashoffset: 0px;"></path><path d="M115.02 58.692s7.109 5.246 11.164 6.878c5.1 2.051 8.4 1.155 16.117 3.484 2.622.791-2.716 10.639-2.716 10.639s-3.377-3.946-10.785-6.094c-7.409-2.148-14.431-13.72-14.431-13.72z" stroke="#fff" stroke-width=".488" style="stroke-dasharray: 76px, 78px; stroke-dashoffset: 0px;"></path><path d="M113.12 61.74s5.509 6.907 9.003 9.533c4.395 3.301 7.816 3.29 14.666 7.536 2.328 1.443-5.377 9.574-5.377 9.574s-2.24-4.685-8.84-8.677c-6.6-3.993-10.389-16.988-10.389-16.988z" stroke="#fff" stroke-width=".488" style="stroke-dasharray: 76px, 78px; stroke-dashoffset: 0px;"></path><path d="M110.5 64.193s3.533 8.098 6.23 11.538c3.39 4.326 6.697 5.2 12.215 11.076 1.875 1.996-7.672 7.856-7.672 7.856s-.952-5.106-6.293-10.67c-5.342-5.565-5.638-19.098-5.638-19.098z" stroke="#fff" stroke-width=".488" style="stroke-dasharray: 76px, 78px; stroke-dashoffset: 0px;"></path><path d="M107.34 65.885s1.317 8.736 3.03 12.757c2.156 5.056 5.124 6.757 8.933 13.86 1.295 2.413-9.443 5.602-9.443 5.602s.402-5.177-3.318-11.935c-3.719-6.757-.502-19.906-.502-19.906z" stroke="#fff" stroke-width=".488" style="stroke-dasharray: 76px, 78px; stroke-dashoffset: 0px;"></path><path d="M103.84 66.7s-.989 8.78-.374 13.107c.772 5.442 3.2 7.853 5.04 15.7.626 2.666-10.571 2.967-10.571 2.967s1.728-4.897-.116-12.387c-1.843-7.49 4.667-19.358 4.667-19.358z" stroke="#fff" stroke-width=".488" style="stroke-dasharray: 76px, 78px; stroke-dashoffset: 0px;"></path><path d="M100.25 66.582s-3.228 8.225-3.754 12.563c-.662 5.456 1.059 8.414.806 16.469-.086 2.737-10.98.13-10.98.13s2.937-4.283 3.095-11.995c.157-7.712 9.517-17.491 9.517-17.491z" stroke="#fff" stroke-width=".488" style="stroke-dasharray: 76px, 78px; stroke-dashoffset: 0px;"></path><path d="M96.819 65.54s-5.246 7.109-6.878 11.164c-2.051 5.1-1.154 8.4-3.484 16.117-.791 2.622-10.639-2.716-10.639-2.716s3.946-3.377 6.094-10.785 13.72-14.431 13.72-14.431z" stroke="#fff" stroke-width=".488" style="stroke-dasharray: 76px, 78px; stroke-dashoffset: 0px;"></path><path d="M93.772 63.645s-6.907 5.509-9.533 9.003c-3.301 4.395-3.29 7.816-7.536 14.666-1.443 2.328-9.574-5.377-9.574-5.377s4.685-2.24 8.677-8.84c3.993-6.6 16.988-10.389 16.988-10.389z" stroke="#fff" stroke-width=".488" style="stroke-dasharray: 76px, 78px; stroke-dashoffset: 0px;"></path><path d="M91.318 61.025s-8.098 3.533-11.538 6.23c-4.326 3.39-5.2 6.697-11.076 12.215-1.996 1.875-7.856-7.672-7.856-7.672s5.106-.952 10.67-6.293c5.565-5.342 19.098-5.638 19.098-5.638z" stroke="#fff" stroke-width=".488" style="stroke-dasharray: 76px, 78px; stroke-dashoffset: 0px;"></path><path d="M89.626 57.86s-8.736 1.317-12.757 3.03c-5.056 2.155-6.757 5.124-13.86 8.933-2.413 1.295-5.602-9.443-5.602-9.443s5.177.402 11.935-3.318c6.757-3.719 19.906-.502 19.906-.502z" stroke="#fff" stroke-width=".488" style="stroke-dasharray: 76px, 78px; stroke-dashoffset: 0px;"></path><path d="M88.812 54.365s-8.78-.989-13.107-.374c-5.442.772-7.853 3.2-15.7 5.04-2.666.626-2.967-10.571-2.967-10.571s4.897 1.728 12.387-.116c7.49-1.843 19.358 4.667 19.358 4.667z" stroke="#fff" stroke-width=".488" style="stroke-dasharray: 76px, 78px; stroke-dashoffset: 0px;"></path><path d="M88.929 50.777s-8.225-3.228-12.563-3.754c-5.456-.662-8.414 1.059-16.469.806-2.737-.086-.13-10.98-.13-10.98s4.283 2.937 11.995 3.095c7.712.157 17.491 9.517 17.491 9.517z" stroke="#fff" stroke-width=".488" style="stroke-dasharray: 76px, 78px; stroke-dashoffset: 0px;"></path><path d="M89.971 47.343s-7.109-5.246-11.164-6.878c-5.1-2.051-8.4-1.155-16.117-3.484-2.622-.791 2.716-10.639 2.716-10.639s3.377 3.946 10.785 6.094 14.431 13.72 14.431 13.72z" stroke="#fff" stroke-width=".488" style="stroke-dasharray: 76px, 78px; stroke-dashoffset: 0px;"></path></svg>